<svg width="20" height="17" viewBox="0 0 20 17" fill="none" xmlns="http://www.w3.org/2000/svg">
<path d="M19.826 2.45944C19.1017 2.77186 18.3136 2.99672 17.5018 3.08429C18.3446 2.58355 18.9758 1.79246 19.2769 0.859439C18.486 1.32995 17.6195 1.65987 16.716 1.83459C16.3383 1.43086 15.8816 1.10924 15.3742 0.889753C14.8668 0.670268 14.3197 0.557627 13.7668 0.558848C11.5302 0.558848 9.73134 2.37186 9.73134 4.59671C9.73134 4.90914 9.76921 5.22157 9.83075 5.52216C6.48164 5.34701 3.49466 3.74701 1.50886 1.29731C1.14703 1.91533 0.957415 2.61903 0.959749 3.33518C0.959749 4.73636 1.67217 5.97186 2.75856 6.69849C2.11834 6.67327 1.4931 6.4973 0.933714 6.18488V6.23458C0.933714 8.19671 2.3207 9.82275 4.16922 10.1967C3.82214 10.2869 3.46509 10.333 3.10649 10.334C2.84377 10.334 2.59525 10.308 2.34436 10.2725C2.85561 11.8725 4.34436 13.0346 6.11714 13.0724C4.73016 14.1588 2.99288 14.7979 1.1065 14.7979C0.768034 14.7979 0.455608 14.7861 0.131348 14.7482C1.9207 15.8961 4.04377 16.5588 6.33016 16.5588C13.7526 16.5588 17.8142 10.4097 17.8142 5.07245C17.8142 4.89731 17.8142 4.72216 17.8023 4.54701C18.5881 3.97186 19.2769 3.25944 19.826 2.45944Z" fill="white"/>
</svg>
