<svg width="17" height="17" viewBox="0 0 17 17" fill="none" xmlns="http://www.w3.org/2000/svg">
<path d="M8.13135 0.558838C5.95658 0.558838 5.68554 0.569339 4.83444 0.605344C3.97983 0.647349 3.40176 0.779866 2.89169 0.97789C2.35786 1.17943 1.8744 1.49496 1.47502 1.90251C1.06634 2.30095 0.750623 2.78468 0.5504 3.31918C0.352375 3.82925 0.219859 4.40732 0.177853 5.26193C0.139349 6.11353 0.131348 6.38407 0.131348 8.55884C0.131348 10.7336 0.141849 11.0046 0.177853 11.8558C0.219859 12.7079 0.352375 13.2884 0.5504 13.7985C0.751935 14.3323 1.06747 14.8158 1.47502 15.2152C1.87346 15.6238 2.35719 15.9396 2.89169 16.1398C3.40176 16.3353 3.98233 16.4703 4.83444 16.5123C5.68604 16.5508 5.95658 16.5588 8.13135 16.5588C10.3061 16.5588 10.5772 16.5483 11.4283 16.5123C12.2804 16.4703 12.8609 16.3348 13.371 16.1398C13.9048 15.9383 14.3883 15.6227 14.7877 15.2152C15.1969 14.8172 15.5127 14.3333 15.7123 13.7985C15.9078 13.2884 16.0428 12.7079 16.0848 11.8558C16.1233 11.0041 16.1313 10.7336 16.1313 8.55884C16.1313 6.38407 16.1208 6.11303 16.0848 5.26193C16.0428 4.40982 15.9073 3.82625 15.7123 3.31918C15.5108 2.78535 15.1952 2.30189 14.7877 1.90251C14.3897 1.4933 13.9058 1.17751 13.371 0.97789C12.8609 0.779866 12.2804 0.647349 11.4283 0.605344C10.5767 0.566839 10.3061 0.558838 8.13135 0.558838ZM8.13135 1.99902C10.2671 1.99902 10.5221 2.00952 11.3663 2.04552C12.1448 2.08203 12.5689 2.21204 12.8504 2.32206C13.1985 2.45054 13.5135 2.65503 13.7726 2.92063C14.0377 3.17858 14.2414 3.49288 14.3686 3.84025C14.4786 4.12178 14.6087 4.54584 14.6452 5.32443C14.6812 6.16854 14.6917 6.42407 14.6917 8.55934C14.6917 10.6946 14.6812 10.9501 14.6422 11.7942C14.6002 12.5728 14.4701 12.9969 14.3606 13.2784C14.2091 13.654 14.0401 13.9165 13.7611 14.2005C13.5011 14.4645 13.1863 14.668 12.8389 14.7966C12.5609 14.9066 12.1308 15.0366 11.3492 15.0732C10.5006 15.1092 10.2506 15.1197 8.10935 15.1197C5.96808 15.1197 5.71855 15.1092 4.86894 15.0702C4.09034 15.0281 3.66079 14.8981 3.37925 14.7886C2.99921 14.6371 2.73867 14.4681 2.45964 14.189C2.1781 13.9075 1.99908 13.6395 1.86106 13.2669C1.74905 12.9889 1.62103 12.5588 1.57953 11.7772C1.55103 10.9386 1.53752 10.6786 1.53752 8.54734C1.53752 6.41707 1.55103 6.15654 1.57953 5.30743C1.62103 4.52583 1.74905 4.09678 1.86106 3.81775C1.99908 3.4372 2.1786 3.17717 2.45964 2.89563C2.73817 2.6171 2.99921 2.43707 3.37925 2.29606C3.66079 2.18654 4.07984 2.05653 4.86144 2.01752C5.71005 1.98702 5.96008 1.97602 8.09834 1.97602L8.13135 1.99902ZM8.13135 4.45282C7.59195 4.45263 7.0578 4.55872 6.55943 4.76505C6.06105 4.97138 5.60822 5.27389 5.22681 5.6553C4.8454 6.03671 4.54289 6.48954 4.33656 6.98792C4.13023 7.48629 4.02414 8.02044 4.02433 8.55984C4.02414 9.09923 4.13023 9.63338 4.33656 10.1318C4.54289 10.6301 4.8454 11.083 5.22681 11.4644C5.60822 11.8458 6.06105 12.1483 6.55943 12.3546C7.0578 12.561 7.59195 12.667 8.13135 12.6669C8.67074 12.667 9.20489 12.561 9.70327 12.3546C10.2016 12.1483 10.6545 11.8458 11.0359 11.4644C11.4173 11.083 11.7198 10.6301 11.9261 10.1318C12.1325 9.63338 12.2386 9.09923 12.2384 8.55984C12.2386 8.02044 12.1325 7.48629 11.9261 6.98792C11.7198 6.48954 11.4173 6.03671 11.0359 5.6553C10.6545 5.27389 10.2016 4.97138 9.70327 4.76505C9.20489 4.55872 8.67074 4.45263 8.13135 4.45282ZM8.13135 11.2267C6.65716 11.2267 5.46451 10.034 5.46451 8.55984C5.46451 7.08565 6.65716 5.893 8.13135 5.893C9.60553 5.893 10.7982 7.08565 10.7982 8.55984C10.7982 10.034 9.60553 11.2267 8.13135 11.2267ZM13.364 4.2888C13.3637 4.54367 13.2623 4.788 13.082 4.96813C12.9017 5.14825 12.6572 5.24942 12.4024 5.24942C12.2764 5.24942 12.1516 5.2246 12.0352 5.17638C11.9187 5.12815 11.8129 5.05747 11.7238 4.96836C11.6347 4.87925 11.564 4.77346 11.5158 4.65704C11.4676 4.54061 11.4428 4.41582 11.4428 4.2898C11.4428 4.16379 11.4676 4.039 11.5158 3.92257C11.564 3.80615 11.6347 3.70036 11.7238 3.61125C11.8129 3.52214 11.9187 3.45146 12.0352 3.40323C12.1516 3.35501 12.2764 3.33018 12.4024 3.33018C12.9309 3.33018 13.364 3.76024 13.364 4.2888Z" fill="white"/>
</svg>
