<svg width="283" height="37" viewBox="0 0 283 37" fill="none" xmlns="http://www.w3.org/2000/svg">
<path d="M80.8818 17.309C85.0007 18.1426 87.1091 22.0163 87.1091 25.7429C87.1091 30.4992 83.7258 35.3536 76.7139 35.3536H62.543V1.56909H75.6842C81.5683 1.56909 85.2949 5.09955 85.2949 10.2481C85.2949 12.896 84.3142 16.0832 80.8818 17.309ZM79.3127 11.0817C79.3127 8.72807 78.0378 6.91381 75.439 6.91381H68.5252V15.2006H75.439C77.9398 15.2006 79.3127 13.5334 79.3127 11.0817ZM68.5252 30.0089H75.7822C79.2637 30.0089 81.0779 27.7043 81.0779 25.1545C81.0779 22.7518 79.5088 20.2511 75.9294 20.2511H68.5252V30.0089Z" fill="#09002A"/>
<path d="M108.723 15.6419V12.4547H114.411V35.3536H108.723V31.7741C107.203 34.2748 104.163 35.942 100.877 35.942C94.7481 35.942 89.8447 30.9896 89.8447 23.8796C89.8447 16.9658 94.552 11.8663 101.024 11.8663C104.163 11.8663 107.203 13.2392 108.723 15.6419ZM102.054 30.6463C105.585 30.6463 108.625 27.7043 108.625 23.8796C108.625 19.9569 105.389 17.1619 102.005 17.1619C98.3276 17.1619 95.5327 20.2021 95.5327 23.8796C95.5327 27.5572 98.3276 30.6463 102.054 30.6463Z" fill="#09002A"/>
<path d="M132.52 11.8663C138.405 11.8663 141.69 15.838 141.69 22.5067V35.3536H136.002V22.8989C136.002 19.2214 133.795 17.26 131.246 17.26C128.647 17.26 125.411 18.7801 125.411 23.1931V35.3536H119.723V12.4547H125.411V16.0832C126.587 13.1902 130.167 11.8663 132.52 11.8663Z" fill="#09002A"/>
<path d="M157.041 22.4576L168.515 35.3536H161.307L152.383 24.9584V35.3536H146.695V0H152.383V19.7607L158.954 12.4547H166.358L157.041 22.4576Z" fill="#09002A"/>
<path d="M182.779 11.8663C189.202 11.8663 194.4 16.9168 194.4 23.8796C194.4 30.8425 189.202 35.942 182.779 35.942C178.954 35.942 175.325 33.9806 173.658 30.8425V35.3536H170.52V0H173.658V16.9168C175.374 13.7786 178.905 11.8663 182.779 11.8663ZM182.533 32.9509C187.388 32.9509 191.31 28.9301 191.31 23.8306C191.31 18.7801 187.388 14.8573 182.533 14.8573C177.973 14.8573 173.658 18.4368 173.658 23.9777C173.658 29.2734 177.777 32.9509 182.533 32.9509Z" fill="#09002A"/>
<path d="M209.612 35.942C203.09 35.942 197.647 31.1367 197.647 23.8796C197.647 16.6226 203.09 11.8663 209.612 11.8663C216.133 11.8663 221.625 16.6226 221.625 23.8796C221.625 31.1367 216.133 35.942 209.612 35.942ZM209.612 32.9509C214.417 32.9509 218.487 29.2734 218.487 23.8796C218.487 18.4859 214.417 14.8573 209.612 14.8573C204.757 14.8573 200.786 18.4859 200.786 23.8796C200.786 29.2734 204.757 32.9509 209.612 32.9509Z" fill="#09002A"/>
<path d="M236.776 35.942C230.254 35.942 224.811 31.1367 224.811 23.8796C224.811 16.6226 230.254 11.8663 236.776 11.8663C243.297 11.8663 248.789 16.6226 248.789 23.8796C248.789 31.1367 243.297 35.942 236.776 35.942ZM236.776 32.9509C241.581 32.9509 245.651 29.2734 245.651 23.8796C245.651 18.4859 241.581 14.8573 236.776 14.8573C231.921 14.8573 227.95 18.4859 227.95 23.8796C227.95 29.2734 231.921 32.9509 236.776 32.9509Z" fill="#09002A"/>
<path d="M260.017 35.942C256.045 35.942 252.074 33.6374 251.681 29.2734H254.574C254.918 31.1857 256.683 33.1471 260.017 33.1471C263.302 33.1471 265.313 31.4309 265.313 29.1263C265.313 27.263 264.038 26.0371 261.684 25.4487L258.399 24.6642C255.163 23.8796 252.564 22.2125 252.564 18.3878C252.564 14.6612 255.751 11.8663 260.115 11.8663C263.94 11.8663 267.47 13.9747 267.617 18.0936H264.577C264.43 16.0342 262.42 14.6612 260.164 14.6612C257.516 14.6612 255.702 16.2793 255.702 18.4368C255.702 20.5943 257.565 21.526 259.233 21.9182L262.616 22.7518C267.078 23.8306 268.451 26.5275 268.451 29.1753C268.451 33.2451 264.774 35.942 260.017 35.942Z" fill="#09002A"/>
<path d="M277.753 12.4547H283V15.1515H277.753V35.3536H274.664V15.1515H270.496V12.4547H274.664V3.87369H277.753V12.4547Z" fill="#09002A"/>
<path d="M39.7805 2.3972H18.754C17.8959 2.3972 17.712 2.45901 17.2217 2.95346L0.551634 18.5271C0.0612926 19.0216 0 19.207 0 20.0723V29.2196C0 34.4098 2.57429 37.0057 7.72287 37.0057H28.7493C29.6059 37.0057 29.7898 36.9438 30.2801 36.4494L46.9517 20.8757C47.4405 20.3813 47.5018 20.1959 47.5018 19.3306V10.1848C47.5018 4.99307 44.929 2.3972 39.7805 2.3972Z" fill="#653DF5"/>
</svg>
